# xmcd CD database file generated by MAGIX-FreeDB-MP3_deluxe_MX v3.0beta1
#
# Track frame offsets:
#	150
#	22933
#	45709
#	69401
#	93125
#	112728
#	115573
#	148371
#	167280
#	186678
#	203378
#	216288
#
# Disc length: 3314
#
# Revision: 1
# Processed by: cddbd v1.5.2PL0 Copyright (c) Steve Scherf et al.
# Submitted via: MAGIX-FreeDB-MP3_deluxe_MX v3.0beta1
#
DISCID=9b0cf00c
DTITLE=Stork
DYEAR=2009
DGENRE=Progressive Metal
TTITLE0=Moonrock
TTITLE1=Doooosh
TTITLE2=Alien
TTITLE3=Changing Lanes
TTITLE4=Nautilus
TTITLE5=Prelude in the Key Of Shut the Hell Up
TTITLE6=Loki
TTITLE7=DucksInAPond
TTITLE8=Metal Fatigue
TTITLE9=Asian Manipulation
TTITLE10=Emo Village Pillage
TTITLE11=Tripola
EXTD=
EXTT0=
EXTT1=
EXTT2=
EXTT3=
EXTT4=
EXTT5=
EXTT6=
EXTT7=
EXTT8=
EXTT9=
EXTT10=
EXTT11=
PLAYORDER=
